<svg width="635" height="123" viewBox="0 0 635 123" fill="none" xmlns="http://www.w3.org/2000/svg">
<path d="M98.7742 0.186035H24.8226C18.4739 0.191646 12.3869 2.71613 7.89771 7.20533C3.40852 11.6945 0.884029 17.7816 0.878418 24.1302V98.0818C0.884029 104.431 3.40852 110.518 7.89771 115.007C12.3869 119.496 18.4739 122.02 24.8226 122.026H98.7742C105.123 122.02 111.21 119.496 115.699 115.007C120.188 110.518 122.713 104.431 122.718 98.0818V24.1302C122.713 17.7816 120.188 11.6945 115.699 7.20533C111.21 2.71613 105.123 0.191646 98.7742 0.186035ZM86.7597 93.738H49.9535V72.7815H94.4515V86.0673C94.4459 88.1037 93.6331 90.0547 92.1912 91.4926C90.7493 92.9305 88.7961 93.738 86.7597 93.738ZM49.9535 69.5819V28.4741H70.5921V69.5819H49.9535ZM73.7705 69.5819V28.4741H86.7597C88.7924 28.4797 90.7402 29.2896 92.1775 30.727C93.6148 32.1643 94.4248 34.1121 94.4303 36.1447V69.5819H73.7705ZM36.8371 28.4741H46.775V93.738H36.8371C34.8045 93.7324 32.8566 92.9224 31.4193 91.4851C29.982 90.0478 29.1721 88.1 29.1665 86.0673V36.1447C29.1721 34.1121 29.982 32.1643 31.4193 30.727C32.8566 29.2896 34.8045 28.4797 36.8371 28.4741Z" fill="#4C7F0B"/>
<path d="M609.866 94.1113C604.515 94.1113 599.903 93.0889 596.031 91.044C592.18 88.9774 589.211 86.0189 587.122 82.1685C585.056 78.2963 584.022 73.6628 584.022 68.2678C584.022 63.0904 585.067 58.5656 587.155 54.6935C589.243 50.8213 592.191 47.8084 595.998 45.6548C599.805 43.5011 604.297 42.4243 609.474 42.4243C613.26 42.4243 616.686 43.0117 619.753 44.1864C622.82 45.3611 625.442 47.0687 627.617 49.3094C629.792 51.5283 631.468 54.2258 632.642 57.4018C633.817 60.5779 634.404 64.1564 634.404 68.1373V72.314H589.635V62.3943H617.828C617.806 60.9585 617.436 59.6968 616.718 58.6091C616.022 57.4997 615.076 56.6404 613.88 56.0313C612.705 55.4005 611.367 55.085 609.866 55.085C608.408 55.085 607.071 55.4005 605.852 56.0313C604.634 56.6404 603.655 57.4888 602.916 58.5765C602.198 59.6642 601.817 60.9368 601.774 62.3943V73.0972C601.774 74.7069 602.111 76.1427 602.785 77.4044C603.459 78.6661 604.428 79.6559 605.689 80.3738C606.951 81.0917 608.474 81.4506 610.258 81.4506C611.498 81.4506 612.629 81.2766 613.651 80.9285C614.695 80.5805 615.587 80.0801 616.327 79.4275C617.067 78.7532 617.61 77.9483 617.958 77.0129H634.404C633.839 80.4935 632.501 83.5172 630.391 86.0842C628.281 88.6294 625.485 90.609 622.005 92.023C618.546 93.4152 614.5 94.1113 609.866 94.1113Z" fill="#181818"/>
<path d="M553.08 113.037C548.055 113.037 543.747 112.319 540.158 110.884C536.59 109.47 533.817 107.512 531.837 105.01C529.879 102.53 528.781 99.6803 528.541 96.4607H545.901C546.075 97.5267 546.51 98.386 547.206 99.0386C547.902 99.6912 548.794 100.159 549.882 100.442C550.991 100.746 552.231 100.899 553.602 100.899C555.929 100.899 557.855 100.333 559.377 99.2017C560.922 98.0705 561.694 96.0257 561.694 93.0672V84.5832H561.172C560.52 86.28 559.519 87.7266 558.17 88.9231C556.821 90.0978 555.201 91.0005 553.308 91.6314C551.416 92.2405 549.338 92.5451 547.076 92.5451C543.508 92.5451 540.223 91.7184 537.221 90.0651C534.241 88.4118 531.848 85.7905 530.042 82.2011C528.259 78.6118 527.367 73.9238 527.367 68.1373C527.367 62.0897 528.302 57.1734 530.173 53.3882C532.066 49.6031 534.502 46.8295 537.482 45.0674C540.484 43.3053 543.639 42.4243 546.945 42.4243C549.425 42.4243 551.6 42.8594 553.471 43.7295C555.342 44.5779 556.908 45.72 558.17 47.1558C559.432 48.5698 560.389 50.1252 561.042 51.822H561.433V43.0769H579.445V93.0672C579.445 97.3091 578.347 100.909 576.15 103.868C573.974 106.848 570.907 109.121 566.948 110.688C562.989 112.254 558.366 113.037 553.08 113.037ZM553.732 79.7538C555.386 79.7538 556.8 79.297 557.974 78.3833C559.171 77.4479 560.084 76.1209 560.715 74.4024C561.368 72.6621 561.694 70.5737 561.694 68.1373C561.694 65.6574 561.368 63.5364 560.715 61.7743C560.084 59.9905 559.171 58.6309 557.974 57.6955C556.8 56.7383 555.386 56.2597 553.732 56.2597C552.079 56.2597 550.665 56.7383 549.49 57.6955C548.337 58.6309 547.445 59.9905 546.815 61.7743C546.205 63.5364 545.901 65.6574 545.901 68.1373C545.901 70.6172 546.205 72.7274 546.815 74.4677C547.445 76.1862 548.337 77.5023 549.49 78.416C550.665 79.3079 552.079 79.7538 553.732 79.7538Z" fill="#181818"/>
<path d="M494.719 93.1977V43.0769H512.209V52.6051H512.731C513.645 49.081 515.092 46.5032 517.071 44.8716C519.073 43.2401 521.411 42.4243 524.087 42.4243C524.87 42.4243 525.642 42.4896 526.404 42.6201C527.187 42.7289 527.937 42.892 528.655 43.1096V58.4786C527.763 58.1741 526.665 57.9456 525.359 57.7934C524.054 57.6411 522.934 57.565 521.999 57.565C520.236 57.565 518.648 57.9674 517.234 58.7723C515.842 59.5554 514.744 60.6649 513.939 62.1006C513.134 63.5146 512.731 65.1788 512.731 67.0931V93.1977H494.719Z" fill="#181818"/>
<path d="M464.193 94.1113C458.754 94.1113 454.099 93.0345 450.227 90.8809C446.355 88.7055 443.385 85.6817 441.319 81.8096C439.252 77.9156 438.219 73.4017 438.219 68.2678C438.219 63.1339 439.252 58.6309 441.319 54.7587C443.385 50.8648 446.355 47.841 450.227 45.6874C454.099 43.512 458.754 42.4243 464.193 42.4243C469.631 42.4243 474.287 43.512 478.159 45.6874C482.031 47.841 485 50.8648 487.067 54.7587C489.134 58.6309 490.167 63.1339 490.167 68.2678C490.167 73.4017 489.134 77.9156 487.067 81.8096C485 85.6817 482.031 88.7055 478.159 90.8809C474.287 93.0345 469.631 94.1113 464.193 94.1113ZM464.323 80.798C465.846 80.798 467.162 80.2868 468.272 79.2644C469.381 78.2419 470.24 76.7844 470.849 74.8919C471.459 72.9993 471.763 70.7478 471.763 68.1373C471.763 65.5051 471.459 63.2536 470.849 61.3827C470.24 59.4902 469.381 58.0327 468.272 57.0102C467.162 55.9878 465.846 55.4766 464.323 55.4766C462.714 55.4766 461.332 55.9878 460.179 57.0102C459.026 58.0327 458.145 59.4902 457.536 61.3827C456.927 63.2536 456.622 65.5051 456.622 68.1373C456.622 70.7478 456.927 72.9993 457.536 74.8919C458.145 76.7844 459.026 78.2419 460.179 79.2644C461.332 80.2868 462.714 80.798 464.323 80.798Z" fill="#181818"/>
<path d="M392.56 93.1978V26.3701H439.548V40.9887H410.702V52.4747H436.676V67.0932H410.702V93.1978H392.56Z" fill="#181818"/>
<path d="M363.689 94.1113C358.337 94.1113 353.725 93.0889 349.853 91.044C346.003 88.9774 343.033 86.0189 340.945 82.1685C338.879 78.2963 337.845 73.6628 337.845 68.2678C337.845 63.0904 338.889 58.5656 340.978 54.6935C343.066 50.8213 346.014 47.8084 349.821 45.6548C353.628 43.5011 358.12 42.4243 363.297 42.4243C367.082 42.4243 370.509 43.0117 373.576 44.1864C376.643 45.3611 379.264 47.0687 381.44 49.3094C383.615 51.5283 385.29 54.2258 386.465 57.4018C387.64 60.5779 388.227 64.1564 388.227 68.1373V72.314H343.458V62.3943H371.651C371.629 60.9585 371.259 59.6968 370.541 58.6091C369.845 57.4997 368.899 56.6404 367.702 56.0313C366.528 55.4005 365.19 55.085 363.689 55.085C362.231 55.085 360.893 55.4005 359.675 56.0313C358.457 56.6404 357.478 57.4888 356.738 58.5765C356.021 59.6642 355.64 60.9368 355.596 62.3943V73.0972C355.596 74.7069 355.933 76.1427 356.608 77.4044C357.282 78.6661 358.25 79.6559 359.512 80.3738C360.774 81.0917 362.296 81.4506 364.08 81.4506C365.32 81.4506 366.451 81.2766 367.474 80.9285C368.518 80.5805 369.41 80.0801 370.15 79.4275C370.889 78.7532 371.433 77.9483 371.781 77.0129H388.227C387.661 80.4935 386.324 83.5172 384.213 86.0842C382.103 88.6294 379.308 90.609 375.827 92.023C372.368 93.4152 368.322 94.1113 363.689 94.1113Z" fill="#181818"/>
<path d="M301.037 65.0048V93.1977H283.025V43.0769H300.123V52.6051H300.645C301.733 49.429 303.648 46.9382 306.388 45.1327C309.151 43.3271 312.371 42.4243 316.047 42.4243C319.593 42.4243 322.671 43.2401 325.282 44.8716C327.914 46.4814 329.948 48.7003 331.384 51.5283C332.841 54.3563 333.559 57.5867 333.537 61.2196V93.1977H315.525V65.0048C315.547 62.5248 314.916 60.5779 313.632 59.1639C312.371 57.7499 310.609 57.0429 308.346 57.0429C306.867 57.0429 305.573 57.3692 304.463 58.0218C303.376 58.6526 302.538 59.5663 301.951 60.7628C301.363 61.9375 301.059 63.3515 301.037 65.0048Z" fill="#181818"/>
<path d="M245.458 93.9808C242.261 93.9808 239.433 93.4587 236.974 92.4145C234.538 91.3486 232.624 89.7388 231.231 87.5852C229.839 85.4316 229.143 82.6906 229.143 79.3623C229.143 76.6213 229.611 74.2827 230.546 72.3467C231.482 70.3888 232.787 68.7899 234.462 67.5499C236.137 66.31 238.084 65.3637 240.303 64.7111C242.543 64.0585 244.958 63.6343 247.547 63.4385C250.353 63.2209 252.605 62.9599 254.301 62.6553C256.02 62.329 257.26 61.8831 258.021 61.3175C258.783 60.7301 259.163 59.9579 259.163 59.0007V58.8702C259.163 57.565 258.663 56.5643 257.662 55.8682C256.662 55.172 255.378 54.824 253.812 54.824C252.093 54.824 250.69 55.2047 249.603 55.9661C248.537 56.7057 247.895 57.8478 247.677 59.3923H231.101C231.318 56.3467 232.286 53.5405 234.005 50.9736C235.745 48.3849 238.28 46.3182 241.608 44.7737C244.936 43.2075 249.091 42.4243 254.073 42.4243C257.662 42.4243 260.882 42.8485 263.732 43.6969C266.581 44.5236 269.007 45.6874 271.008 47.1884C273.01 48.6677 274.532 50.408 275.577 52.4093C276.642 54.3889 277.175 56.5425 277.175 58.8702V93.1977H260.338V86.1494H259.946C258.946 88.0203 257.728 89.5322 256.292 90.6851C254.878 91.8381 253.257 92.6756 251.43 93.1977C249.624 93.7198 247.634 93.9808 245.458 93.9808ZM251.332 82.6253C252.702 82.6253 253.986 82.3425 255.182 81.7769C256.401 81.2113 257.39 80.3956 258.152 79.3296C258.913 78.2637 259.294 76.9693 259.294 75.4466V71.2698C258.815 71.4656 258.304 71.6505 257.76 71.8246C257.238 71.9986 256.672 72.1618 256.063 72.314C255.476 72.4663 254.845 72.6077 254.171 72.7382C253.518 72.8688 252.833 72.9884 252.115 73.0972C250.723 73.3147 249.581 73.6736 248.689 74.174C247.819 74.6526 247.166 75.2508 246.731 75.9687C246.318 76.6648 246.111 77.4479 246.111 78.3181C246.111 79.7103 246.6 80.7763 247.579 81.5159C248.558 82.2555 249.809 82.6253 251.332 82.6253Z" fill="#181818"/>
<path d="M175.93 93.1978V26.3701H204.775C209.735 26.3701 214.075 27.349 217.795 29.3069C221.515 31.2647 224.408 34.0166 226.475 37.5624C228.541 41.1083 229.575 45.2524 229.575 49.9947C229.575 54.7806 228.509 58.9247 226.377 62.427C224.267 65.9294 221.297 68.6269 217.469 70.5194C213.662 72.412 209.213 73.3583 204.123 73.3583H186.894V59.2619H200.468C202.6 59.2619 204.416 58.892 205.917 58.1524C207.44 57.391 208.604 56.3142 209.409 54.922C210.235 53.5297 210.649 51.8873 210.649 49.9947C210.649 48.0804 210.235 46.4489 209.409 45.1001C208.604 43.7296 207.44 42.6855 205.917 41.9676C204.416 41.228 202.6 40.8581 200.468 40.8581H194.072V93.1978H175.93Z" fill="#181818"/>
</svg>
