<svg width="634" height="122" viewBox="0 0 634 122" fill="none" xmlns="http://www.w3.org/2000/svg">
<path d="M97.9163 0.116699H23.9647C17.616 0.12231 11.529 2.6468 7.0398 7.13599C2.55061 11.6252 0.0261187 17.7122 0.0205078 24.0609V98.0125C0.0261187 104.361 2.55061 110.448 7.0398 114.937C11.529 119.427 17.616 121.951 23.9647 121.957H97.9163C104.265 121.951 110.352 119.427 114.841 114.937C119.33 110.448 121.855 104.361 121.861 98.0125V24.0609C121.855 17.7122 119.33 11.6252 114.841 7.13599C110.352 2.6468 104.265 0.12231 97.9163 0.116699ZM85.9018 93.6686H49.0955V72.7121H93.5936V85.998C93.588 88.0343 92.7752 89.9853 91.3333 91.4232C89.8914 92.8612 87.9381 93.6686 85.9018 93.6686ZM49.0955 69.5125V28.4048H69.7342V69.5125H49.0955ZM72.9126 69.5125V28.4048H85.9018C87.9345 28.4104 89.8823 29.2203 91.3196 30.6576C92.7569 32.0949 93.5668 34.0427 93.5724 36.0754V69.5125H72.9126ZM35.9792 28.4048H45.9171V93.6686H35.9792C33.9465 93.663 31.9987 92.8531 30.5614 91.4158C29.1241 89.9785 28.3142 88.0307 28.3086 85.998V36.0754C28.3142 34.0427 29.1241 32.0949 30.5614 30.6576C31.9987 29.2203 33.9465 28.4104 35.9792 28.4048Z" fill="#95EC27"/>
<path d="M609.008 94.042C603.657 94.042 599.045 93.0196 595.173 90.9747C591.322 88.9081 588.353 85.9496 586.264 82.0992C584.198 78.227 583.165 73.5934 583.165 68.1985C583.165 63.0211 584.209 58.4963 586.297 54.6241C588.385 50.7519 591.333 47.739 595.14 45.5854C598.947 43.4318 603.439 42.355 608.617 42.355C612.402 42.355 615.828 42.9423 618.895 44.117C621.962 45.2917 624.584 46.9994 626.759 49.2401C628.935 51.4589 630.61 54.1564 631.784 57.3325C632.959 60.5085 633.546 64.087 633.546 68.068V72.2447H588.777V62.325H616.97C616.948 60.8892 616.578 59.6275 615.861 58.5398C615.164 57.4304 614.218 56.5711 613.022 55.962C611.847 55.3311 610.509 55.0157 609.008 55.0157C607.551 55.0157 606.213 55.3311 604.995 55.962C603.776 56.5711 602.797 57.4195 602.058 58.5072C601.34 59.5949 600.959 60.8675 600.916 62.325V73.0278C600.916 74.6376 601.253 76.0734 601.927 77.3351C602.602 78.5968 603.57 79.5866 604.831 80.3045C606.093 81.0224 607.616 81.3813 609.4 81.3813C610.64 81.3813 611.771 81.2073 612.793 80.8592C613.837 80.5111 614.729 80.0108 615.469 79.3582C616.209 78.6838 616.752 77.8789 617.1 76.9435H633.546C632.981 80.4241 631.643 83.4479 629.533 86.0148C627.423 88.56 624.627 90.5396 621.147 91.9536C617.688 93.3459 613.642 94.042 609.008 94.042Z" fill="white"/>
<path d="M552.222 112.968C547.197 112.968 542.889 112.25 539.3 110.814C535.732 109.4 532.959 107.442 530.979 104.941C529.021 102.461 527.923 99.611 527.684 96.3914H545.043C545.217 97.4573 545.652 98.3166 546.348 98.9692C547.044 99.6218 547.936 100.09 549.024 100.372C550.133 100.677 551.373 100.829 552.744 100.829C555.072 100.829 556.997 100.264 558.52 99.1324C560.064 98.0012 560.836 95.9563 560.836 92.9978V84.5138H560.314C559.662 86.2106 558.661 87.6573 557.312 88.8537C555.963 90.0284 554.343 90.9312 552.45 91.5621C550.558 92.1712 548.48 92.4757 546.218 92.4757C542.65 92.4757 539.365 91.6491 536.363 89.9958C533.383 88.3425 530.99 85.7212 529.185 82.1318C527.401 78.5424 526.509 73.8545 526.509 68.068C526.509 62.0204 527.444 57.1041 529.315 53.3189C531.208 49.5337 533.644 46.7601 536.624 44.9981C539.626 43.236 542.781 42.355 546.087 42.355C548.567 42.355 550.743 42.7901 552.613 43.6602C554.484 44.5086 556.05 45.6507 557.312 47.0864C558.574 48.5004 559.531 50.0558 560.184 51.7526H560.575V43.0076H578.587V92.9978C578.587 97.2398 577.489 100.84 575.292 103.799C573.116 106.779 570.049 109.052 566.09 110.618C562.131 112.185 557.508 112.968 552.222 112.968ZM552.874 79.6845C554.528 79.6845 555.942 79.2277 557.116 78.314C558.313 77.3786 559.227 76.0516 559.857 74.3331C560.51 72.5928 560.836 70.5044 560.836 68.068C560.836 65.588 560.51 63.467 559.857 61.705C559.227 59.9212 558.313 58.5616 557.116 57.6261C555.942 56.669 554.528 56.1904 552.874 56.1904C551.221 56.1904 549.807 56.669 548.632 57.6261C547.479 58.5616 546.588 59.9212 545.957 61.705C545.348 63.467 545.043 65.588 545.043 68.068C545.043 70.5479 545.348 72.658 545.957 74.3983C546.588 76.1169 547.479 77.433 548.632 78.3466C549.807 79.2385 551.221 79.6845 552.874 79.6845Z" fill="white"/>
<path d="M493.861 93.1283V43.0076H511.351V52.5358H511.873C512.787 49.0116 514.234 46.4338 516.213 44.8023C518.215 43.1707 520.553 42.355 523.229 42.355C524.012 42.355 524.784 42.4202 525.546 42.5508C526.329 42.6595 527.079 42.8227 527.797 43.0402V58.4093C526.905 58.1047 525.807 57.8763 524.502 57.724C523.196 57.5718 522.076 57.4956 521.141 57.4956C519.379 57.4956 517.79 57.8981 516.376 58.703C514.984 59.4861 513.886 60.5955 513.081 62.0313C512.276 63.4453 511.873 65.1095 511.873 67.0238V93.1283H493.861Z" fill="white"/>
<path d="M463.335 94.042C457.896 94.042 453.241 92.9652 449.369 90.8116C445.497 88.6362 442.527 85.6124 440.461 81.7402C438.394 77.8463 437.361 73.3324 437.361 68.1985C437.361 63.0646 438.394 58.5616 440.461 54.6894C442.527 50.7955 445.497 47.7717 449.369 45.618C453.241 43.4427 457.896 42.355 463.335 42.355C468.773 42.355 473.429 43.4427 477.301 45.618C481.173 47.7717 484.142 50.7955 486.209 54.6894C488.276 58.5616 489.309 63.0646 489.309 68.1985C489.309 73.3324 488.276 77.8463 486.209 81.7402C484.142 85.6124 481.173 88.6362 477.301 90.8116C473.429 92.9652 468.773 94.042 463.335 94.042ZM463.465 80.7287C464.988 80.7287 466.304 80.2175 467.414 79.195C468.523 78.1726 469.382 76.7151 469.992 74.8225C470.601 72.9299 470.905 70.6784 470.905 68.068C470.905 65.4358 470.601 63.1842 469.992 61.3134C469.382 59.4208 468.523 57.9633 467.414 56.9409C466.304 55.9185 464.988 55.4073 463.465 55.4073C461.856 55.4073 460.474 55.9185 459.321 56.9409C458.168 57.9633 457.287 59.4208 456.678 61.3134C456.069 63.1842 455.765 65.4358 455.765 68.068C455.765 70.6784 456.069 72.9299 456.678 74.8225C457.287 76.7151 458.168 78.1726 459.321 79.195C460.474 80.2175 461.856 80.7287 463.465 80.7287Z" fill="white"/>
<path d="M391.702 93.1284V26.3008H438.69V40.9193H409.844V52.4053H435.818V67.0239H409.844V93.1284H391.702Z" fill="white"/>
<path d="M362.831 94.042C357.479 94.042 352.868 93.0196 348.995 90.9747C345.145 88.9081 342.176 85.9496 340.087 82.0992C338.021 78.227 336.987 73.5934 336.987 68.1985C336.987 63.0211 338.031 58.4963 340.12 54.6241C342.208 50.7519 345.156 47.739 348.963 45.5854C352.77 43.4318 357.262 42.355 362.439 42.355C366.224 42.355 369.651 42.9423 372.718 44.117C375.785 45.2917 378.407 46.9994 380.582 49.2401C382.757 51.4589 384.432 54.1564 385.607 57.3325C386.782 60.5085 387.369 64.087 387.369 68.068V72.2447H342.6V62.325H370.793C370.771 60.8892 370.401 59.6275 369.683 58.5398C368.987 57.4304 368.041 56.5711 366.844 55.962C365.67 55.3311 364.332 55.0157 362.831 55.0157C361.373 55.0157 360.035 55.3311 358.817 55.962C357.599 56.5711 356.62 57.4195 355.88 58.5072C355.163 59.5949 354.782 60.8675 354.738 62.325V73.0278C354.738 74.6376 355.076 76.0734 355.75 77.3351C356.424 78.5968 357.392 79.5866 358.654 80.3045C359.916 81.0224 361.439 81.3813 363.222 81.3813C364.462 81.3813 365.594 81.2073 366.616 80.8592C367.66 80.5111 368.552 80.0108 369.292 79.3582C370.031 78.6838 370.575 77.8789 370.923 76.9435H387.369C386.803 80.4241 385.466 83.4479 383.356 86.0148C381.245 88.56 378.45 90.5396 374.969 91.9536C371.511 93.3459 367.464 94.042 362.831 94.042Z" fill="white"/>
<path d="M300.179 64.9354V93.1283H282.167V43.0076H299.265V52.5358H299.788C300.875 49.3597 302.79 46.8689 305.531 45.0633C308.293 43.2578 311.513 42.355 315.189 42.355C318.735 42.355 321.813 43.1707 324.424 44.8023C327.056 46.4121 329.09 48.6309 330.526 51.4589C331.983 54.2869 332.701 57.5174 332.679 61.1503V93.1283H314.667V64.9354C314.689 62.4555 314.058 60.5085 312.775 59.0945C311.513 57.6805 309.751 56.9735 307.488 56.9735C306.009 56.9735 304.715 57.2998 303.605 57.9524C302.518 58.5833 301.68 59.497 301.093 60.6934C300.505 61.8681 300.201 63.2821 300.179 64.9354Z" fill="white"/>
<path d="M244.601 93.9115C241.403 93.9115 238.575 93.3894 236.117 92.3452C233.68 91.2793 231.766 89.6695 230.374 87.5159C228.981 85.3622 228.285 82.6213 228.285 79.2929C228.285 76.5519 228.753 74.2134 229.688 72.2773C230.624 70.3195 231.929 68.7206 233.604 67.4806C235.279 66.2406 237.226 65.2944 239.445 64.6417C241.685 63.9891 244.1 63.5649 246.689 63.3691C249.495 63.1516 251.747 62.8906 253.443 62.586C255.162 62.2597 256.402 61.8137 257.163 61.2481C257.925 60.6608 258.305 59.8885 258.305 58.9314V58.8008C258.305 57.4956 257.805 56.4949 256.804 55.7988C255.804 55.1027 254.52 54.7546 252.954 54.7546C251.235 54.7546 249.832 55.1353 248.745 55.8967C247.679 56.6363 247.037 57.7784 246.819 59.3229H230.243C230.461 56.2774 231.429 53.4712 233.147 50.9042C234.887 48.3155 237.422 46.2489 240.75 44.7044C244.078 43.1381 248.233 42.355 253.215 42.355C256.804 42.355 260.024 42.7792 262.874 43.6276C265.723 44.4542 268.149 45.6181 270.15 47.1191C272.152 48.5983 273.674 50.3386 274.719 52.34C275.785 54.3196 276.318 56.4732 276.318 58.8008V93.1283H259.48V86.0801H259.089C258.088 87.9509 256.87 89.4628 255.434 90.6158C254.02 91.7687 252.399 92.6062 250.572 93.1283C248.766 93.6504 246.776 93.9115 244.601 93.9115ZM250.474 82.556C251.845 82.556 253.128 82.2732 254.324 81.7076C255.543 81.142 256.532 80.3262 257.294 79.2603C258.055 78.1944 258.436 76.9 258.436 75.3772V71.2005C257.957 71.3963 257.446 71.5812 256.902 71.7552C256.38 71.9293 255.815 72.0924 255.205 72.2447C254.618 72.397 253.987 72.5384 253.313 72.6689C252.66 72.7994 251.975 72.9191 251.257 73.0278C249.865 73.2454 248.723 73.6043 247.831 74.1046C246.961 74.5832 246.308 75.1815 245.873 75.8993C245.46 76.5955 245.253 77.3786 245.253 78.2487C245.253 79.641 245.743 80.7069 246.722 81.4466C247.7 82.1862 248.951 82.556 250.474 82.556Z" fill="white"/>
<path d="M175.072 93.1284V26.3008H203.917C208.877 26.3008 213.217 27.2797 216.937 29.2375C220.657 31.1954 223.55 33.9472 225.617 37.4931C227.683 41.039 228.717 45.1831 228.717 49.9254C228.717 54.7112 227.651 58.8553 225.519 62.3577C223.409 65.8601 220.439 68.5575 216.611 70.4501C212.804 72.3427 208.355 73.289 203.265 73.289H186.036V59.1925H199.61C201.742 59.1925 203.558 58.8227 205.059 58.0831C206.582 57.3217 207.746 56.2449 208.551 54.8526C209.378 53.4604 209.791 51.818 209.791 49.9254C209.791 48.0111 209.378 46.3795 208.551 45.0308C207.746 43.6603 206.582 42.6161 205.059 41.8983C203.558 41.1586 201.742 40.7888 199.61 40.7888H193.214V93.1284H175.072Z" fill="white"/>
</svg>
